<svg width="215" height="54" viewBox="0 0 215 54" fill="none" xmlns="http://www.w3.org/2000/svg">
<path d="M26.216 5.48V8.384C26.216 11.504 24.296 13.064 20.432 13.064H4.88V20H0.2V0.8H20.432C24.296 0.8 26.216 2.36 26.216 5.48ZM20.432 5.264H4.88V8.6H20.432C21.152 8.6 21.512 8.36 21.512 7.904V5.96C21.512 5.504 21.152 5.264 20.432 5.264ZM45.806 9.032V11.072C45.806 13.208 44.606 14.192 42.11 14.192H32.654V15.104C32.654 15.728 33.014 16.04 33.734 16.04H45.566V20H33.326C29.75 20 27.95 18.56 27.95 15.656V9.68C27.95 7.016 29.75 5.696 33.326 5.696H42.11C44.582 5.696 45.806 6.8 45.806 9.032ZM40.19 9.416H33.734C33.014 9.416 32.654 9.752 32.654 10.448V11.432H40.19C40.79 11.432 41.102 11.072 41.102 10.376C41.102 9.728 40.79 9.416 40.19 9.416ZM64.448 9.416V10.544C64.448 11.528 64.136 12.248 63.584 12.8C64.184 13.352 64.568 14.072 64.568 15.128V16.256C64.568 19.208 62.672 20 58.76 20H47.864V16.952H58.76C59.48 16.952 59.84 16.64 59.84 16.04V15.08C59.84 14.48 59.528 14.192 58.904 14.192H50.792V11.48H58.904C59.528 11.48 59.84 11.192 59.84 10.592V9.632C59.84 9.032 59.48 8.72 58.76 8.72H47.864V5.672H58.76C62.648 5.672 64.448 6.464 64.448 9.416ZM85.8168 5.696V19.952C85.8168 23.096 83.8968 24.656 80.0328 24.656H67.5768V20.696H79.6008C80.6088 20.696 81.1128 20.24 81.1128 19.352V17.936H70.8888C68.1768 17.936 66.8328 16.688 66.8328 14.192V5.696H71.5128V13.016C71.5128 13.664 71.8728 13.976 72.6168 13.976H81.1128V5.696H85.8168ZM107.48 5.696V20H102.8V9.416H93.1998V15.344C93.1998 16.976 92.5278 18.848 91.6878 20H86.9838C87.9918 18.632 88.4958 17.12 88.4958 15.464V5.696H107.48ZM122.128 14.264H114.592V16.28H122.128C122.728 16.28 123.04 15.968 123.04 15.32C123.04 14.624 122.728 14.264 122.128 14.264ZM127.744 13.904V16.664C127.744 18.896 126.52 20 124.048 20H109.888V5.696H114.592V10.784H124.048C126.544 10.784 127.744 11.768 127.744 13.904ZM148.023 5.696V9.416H140.607V20H136.119V9.416H128.919V5.696H148.023ZM167.329 10.04V16.016C167.329 18.68 165.529 20 161.953 20H153.169C150.697 20 149.473 18.896 149.473 16.664V14.528C149.473 12.392 150.697 11.312 153.169 11.312H162.625V10.328C162.625 9.704 162.265 9.392 161.545 9.392H149.737V5.696H161.953C165.529 5.696 167.329 7.136 167.329 10.04ZM162.625 14.192H155.089C154.489 14.192 154.177 14.552 154.177 15.248C154.177 15.896 154.489 16.208 155.089 16.208H161.545C162.265 16.208 162.625 15.872 162.625 15.176V14.192ZM187.726 5.696V9.416H180.31V20H175.822V9.416H168.622V5.696H187.726ZM201.417 14.264H193.881V16.28H201.417C202.017 16.28 202.329 15.968 202.329 15.32C202.329 14.624 202.017 14.264 201.417 14.264ZM207.033 13.904V16.664C207.033 18.896 205.809 20 203.337 20H189.177V5.696H193.881V10.784H203.337C205.833 10.784 207.033 11.768 207.033 13.904ZM214.545 5.696V20H209.865V5.696H214.545ZM19.184 39.696V54H14.504V43.416H4.904V54H0.2V39.696H19.184ZM34.775 43.416H27.359C26.639 43.416 26.279 43.728 26.279 44.352V49.08C26.279 49.728 26.639 50.04 27.359 50.04H34.775C35.519 50.04 35.879 49.728 35.879 49.128V44.352C35.879 43.728 35.519 43.416 34.775 43.416ZM40.559 44.4V49.344C40.559 52.44 38.639 54 34.775 54H27.359C23.495 54 21.575 52.44 21.575 49.296V44.4C21.575 41.256 23.495 39.696 27.359 39.696H34.775C38.639 39.696 40.559 41.256 40.559 44.4ZM67.166 39.696V54H62.462V43.032H62.294C61.502 43.032 60.734 43.512 60.23 44.088L53.486 51.96C52.262 53.4 51.086 54 49.07 54H42.974V39.696H47.678V50.664H47.87C48.638 50.664 49.382 50.184 49.886 49.608L56.822 41.64C57.998 40.272 59.174 39.696 61.094 39.696H67.166ZM86.135 39.696V43.416H75.359C74.639 43.416 74.279 43.728 74.279 44.352V49.08C74.279 49.728 74.639 50.04 75.359 50.04H86.231V54H75.359C71.495 54 69.575 52.44 69.575 49.296V44.4C69.575 41.256 71.495 39.696 75.359 39.696H86.135ZM105.172 39.696L99.4364 46.2L105.94 54H100.684L96.2444 48.408H92.7644V54H88.3484V39.696H92.7644V44.832H95.7644L100.108 39.696H105.172ZM124.251 44.04V50.016C124.251 52.68 122.451 54 118.875 54H110.091C107.619 54 106.395 52.896 106.395 50.664V48.528C106.395 46.392 107.619 45.312 110.091 45.312H119.547V44.328C119.547 43.704 119.187 43.392 118.467 43.392H106.659V39.696H118.875C122.451 39.696 124.251 41.136 124.251 44.04ZM119.547 48.192H112.011C111.411 48.192 111.099 48.552 111.099 49.248C111.099 49.896 111.411 50.208 112.011 50.208H118.467C119.187 50.208 119.547 49.872 119.547 49.176V48.192Z" fill="#231815"/>
</svg>
